<svg width="20" height="17" viewBox="0 0 20 17" fill="none" xmlns="http://www.w3.org/2000/svg">
<path fill-rule="evenodd" clip-rule="evenodd" d="M18.4615 0H1.53846C0.688793 0 0 0.688793 0 1.53846V15.3846C0 16.2343 0.688793 16.9231 1.53846 16.9231H18.4615C19.3112 16.9231 20 16.2343 20 15.3846V1.53846C20 0.688793 19.3112 0 18.4615 0ZM18.4615 1.53846V11.4183L15.9548 8.9125C15.6663 8.62391 15.2749 8.46177 14.8668 8.46177C14.4587 8.46177 14.0674 8.62391 13.7788 8.9125L11.8558 10.8356L7.625 6.60481C7.02427 6.00448 6.05072 6.00448 5.45 6.60481L1.53846 10.5163V1.53846H18.4615ZM1.53846 12.6923L6.53846 7.69231L14.2308 15.3846H1.53846V12.6923ZM18.4615 15.3846H16.4067L12.9452 11.9231L14.8683 10L18.4615 13.5942V15.3846ZM11.5385 5.76923C11.5385 5.13198 12.0551 4.61538 12.6923 4.61538C13.3296 4.61538 13.8462 5.13198 13.8462 5.76923C13.8462 6.40648 13.3296 6.92308 12.6923 6.92308C12.0551 6.92308 11.5385 6.40648 11.5385 5.76923Z" fill="white"/>
</svg>
