<svg width="16" height="14" viewBox="0 0 16 14" fill="none" xmlns="http://www.w3.org/2000/svg">
<path d="M16 6.4996C16 10.09 12.4189 12.9992 8.00044 12.9992C6.84113 12.9992 5.7412 12.7992 4.74751 12.4399C4.37566 12.7117 3.76945 13.0836 3.05074 13.3961C2.30079 13.721 1.39772 13.9991 0.500896 13.9991C0.297784 13.9991 0.116545 13.8773 0.0384244 13.6898C-0.0396959 13.5023 0.00405147 13.2898 0.144668 13.1461L0.154042 13.1367C0.163417 13.1273 0.175916 13.1148 0.194665 13.093C0.229038 13.0555 0.28216 12.9961 0.347781 12.9148C0.475898 12.7586 0.647762 12.5274 0.822751 12.2399C1.13523 11.7212 1.43209 11.04 1.49146 10.2744C0.554018 9.21194 0.000926665 7.90889 0.000926665 6.4996C0.000926665 2.9092 3.58196 0 8.00044 0C12.4189 0 16 2.9092 16 6.4996Z" fill="white"/>
</svg>
