<svg width="19" height="15" viewBox="0 0 19 15" fill="none" xmlns="http://www.w3.org/2000/svg">
<path fill-rule="evenodd" clip-rule="evenodd" d="M6.6634 14.4408L0.288524 8.06592L0.253062 8.0284L0.236847 8.00914L0.221623 7.99088L0.20745 7.97262L0.193278 7.95336L0.179105 7.9341C-0.0238271 7.64197 -0.0566898 7.26416 0.0928327 6.94141H0.0928945L0.101992 6.92315V6.91808L0.1101 6.90287V6.89476L0.116165 6.8826L0.12223 6.87144L0.127305 6.86231L0.135412 6.84913V6.84305L0.14451 6.82784L0.154659 6.81161L0.166851 6.79438L0.180033 6.77612L0.194206 6.75786C0.218776 6.72659 0.245202 6.69679 0.273299 6.66863L6.64818 0.293738C7.04018 -0.0980313 7.67559 -0.097892 8.06747 0.294032C8.45941 0.685956 8.45947 1.32133 8.06765 1.71337L3.40349 6.37762H17.9997C18.5524 6.37842 19.0001 6.82671 19.0001 7.37944C19.0001 7.93216 18.5524 8.38045 17.9997 8.38126L3.41866 8.38124L8.08294 13.0456C8.47463 13.4376 8.47451 14.073 8.08257 14.4649C7.69063 14.8568 7.05528 14.8569 6.66322 14.4651L6.6634 14.4408Z" fill="#525252"/>
</svg>
